<svg xmlns="http://www.w3.org/2000/svg" xmlns:i="http://ns.adobe.com/AdobeIllustrator/10.0/" xmlns:xlink="http://www.w3.org/1999/xlink" id="Layer_2" viewBox="0 0 177.8 100"><defs><style>      .st0 {        fill: url(#linear-gradient2);      }      .st1 {        fill: #515252;        font-family: Montserrat-Regular, Montserrat;        font-size: 8px;        letter-spacing: .3em;      }      .st2 {        fill: url(#linear-gradient1);      }      .st3 {        fill: #122248;      }      .st4 {        fill: url(#linear-gradient3);      }      .st5 {        fill: url(#linear-gradient);      }    </style><linearGradient id="linear-gradient" x1="56.3" y1="43.2" x2="76.5" y2="43.2" gradientUnits="userSpaceOnUse"><stop offset="0" stop-color="#231f20"></stop><stop offset="0" stop-color="#231f25"></stop><stop offset="0" stop-color="#24203b"></stop><stop offset="0" stop-color="#25214c"></stop><stop offset="0" stop-color="#252158"></stop><stop offset="0" stop-color="#25215f"></stop><stop offset=".1" stop-color="#262261"></stop><stop offset="1" stop-color="#00adee"></stop></linearGradient><linearGradient id="linear-gradient1" x1="106.1" y1="37.8" x2="112.5" y2="38.5" xlink:href="#linear-gradient"></linearGradient><linearGradient id="linear-gradient2" x1="113.9" y1="43.4" x2="127.1" y2="43.4" gradientUnits="userSpaceOnUse"><stop offset="0" stop-color="#231f20"></stop><stop offset="0" stop-color="#231f25"></stop><stop offset="0" stop-color="#24203b"></stop><stop offset=".1" stop-color="#25214c"></stop><stop offset=".2" stop-color="#252158"></stop><stop offset=".3" stop-color="#25215f"></stop><stop offset=".5" stop-color="#262261"></stop><stop offset="1" stop-color="#00adee"></stop></linearGradient><linearGradient id="linear-gradient3" x1="43.7" y1="39.8" x2="61.1" y2="34.1" gradientUnits="userSpaceOnUse"><stop offset="0" stop-color="#262261"></stop><stop offset=".1" stop-color="#1a4b8b"></stop><stop offset=".3" stop-color="#116eae"></stop><stop offset=".4" stop-color="#098aca"></stop><stop offset=".5" stop-color="#049dde"></stop><stop offset=".6" stop-color="#01a9ea"></stop><stop offset=".7" stop-color="#00adee"></stop></linearGradient></defs><text class="st1" transform="translate(29.2 64.9) scale(.9 1)"><tspan x="0" y="0">ADVANCE SYSTEMS</tspan></text><path class="st3" d="M26.7,47.9h4.1c0,1.7,2.3,2.1,3.6,2.1s3.4-.3,3.4-1.8h0c0-1.5-2.2-2-3.3-2.2-5.8-1-7.3-3.5-7.3-6.6,0-6.1,6.9-6.1,6.9-6.1,5.8,0,7,4.8,7.3,5.6l-4,.9c-.3-1.4-1.4-2.4-3.2-2.4h-.1c-2.3,0-2.8,1.4-2.8,2s0,.8.4,1.2c.4.6,1.3.8,1.9.9,6.3,1.1,8.4,3.5,8.4,6.7s-2.2,5.8-7.5,5.8-7.8-4.2-7.8-6Z"></path><path class="st3" d="M58.1,47.9c-1.2,1.2-2.7,1.8-4.4,1.8-3.5,0-6.3-2.8-6.3-6.3s.8-3.6,2.1-4.7c-1.2.1-2.4.5-3.4,1.2-1.3.9-1.9,1.6-2.7,3.5,0-.2,0-.5,0-.7,0,.2,0,.5,0,.7,0,5.8,4.6,10.4,10.4,10.4s6-1.4,7.9-3.6l-3.5-2.3Z"></path><path class="st3" d="M87.2,43.5h-11.6v-.3h11.8c.7-1,1.1-2.3,1.1-3.6,0-3.4-2.8-6.2-6.2-6.2h-5.3c1.8,1,3.2,2.4,4.3,4.1h1c1.2,0,2.1.9,2.1,2.1s-.9,2.1-2.1,2.1h-6.6v-1.7c-1.1-1.3-2.5-1.9-4.1-1.9v15.4h.1c1.5,0,2.8-.3,4-.8v-6.8h3.2l4.8,7.6h4.9l-4.8-7.8c1.4-.3,2.6-1.1,3.5-2.2Z"></path><path class="st5" d="M81.7,40.7h-4.3c-.9-2.1-3.1-3.6-5.6-3.6h-.1c-3.4,0-6,2.8-6,6.2s1.9,5.2,4.6,6v4.1c-4.9-.8-8.6-5-8.6-10.1s4.6-10.2,10.2-10.2,8.8,3.2,9.9,7.7Z"></path><path class="st3" d="M101.3,33.5h-10.7v9.8h15.8c.7-1,1.1-2.2,1.1-3.5,0-3.4-2.8-6.2-6.2-6.2ZM101.3,41.8h-6.6v-4.2h6.6c1.2,0,2.1.9,2.1,2.1s-.9,2.1-2.1,2.1ZM90.5,53.6h4.1v-7.7h6.6c2,0,3.8-.9,4.9-2.4h-15.6v10Z"></path><path class="st3" d="M109.1,43.5v10h4.1v-10h-4.1Z"></path><rect class="st2" x="109.1" y="33.5" width="4.1" height="9.8"></rect><path class="st3" d="M147,33.4v13.5l-11-13.5h-4.2v10.1c0,3.4-2.8,6.2-6.3,6.2s-6.2-2.7-6.3-6.1h-4.1c0,5.7,4.7,10.3,10.4,10.3s10.4-4.6,10.4-10.3v-3.5l11,13.5h4.1v-20.1h-4.1ZM125.5,33c-5.7,0-10.3,4.6-10.4,10.3h4.1c0-3.4,2.9-6.1,6.3-6.1s3.3.7,4.4,1.8v-5c-1.4-.7-2.8-1-4.4-1Z"></path><path class="st0" d="M128.8,43.4l-4.1,2.3-1.1.7v-2.1c0-.4.3-.7.7-.7h4.3c0,0-5-.3-5-.3v-2.8s3.5,2,3.5,2l1.8,1Z"></path><path class="st4" d="M61.7,36.8l-3.5,2.3c-.1-.1-.2-.2-.4-.3-1.1-1-2.5-1.5-4.1-1.5s-3,.6-4.1,1.6c-1.2.1-2.4.5-3.4,1.2-1.3.9-1.9,1.6-2.7,3.5,0-.2,0-.5,0-.7h0c.2-3.5,2.2-6.5,5-8.2,1.6-.9,3.4-1.4,5.3-1.4,3.2,0,6,1.4,7.9,3.6Z"></path><metadata></metadata></svg>