<svg xmlns="http://www.w3.org/2000/svg" xmlns:i="http://ns.adobe.com/AdobeIllustrator/10.0/" id="Layer_2" viewBox="0 0 177.8 100"><defs><style>      .st0 {        fill: #bf9667;      }    </style></defs><g id="layer1"><path id="path825" d="M44.3,66.2c-.7-.1-1.4-.4-4.6-1.8-.2,0-1.2-.5-2.2-1-1-.5-2-.9-2.1-1-.1,0-.6-.3-1.1-.5-.4-.2-1-.5-1.4-.6-.3-.1-.9-.4-1.3-.6-.4-.2-1-.4-1.3-.6-.3-.1-1.1-.5-1.7-.8-.6-.3-1.2-.6-1.3-.6-.2-.1-.3-.4-.3-.7s.2-.5.3-.6c.2-.2.4-.2.7,0,.2,0,2,.9,3.3,1.5.4.2,1,.5,1.5.7.4.2.9.4,1,.5.2,0,1.5.7,3,1.4,1.5.7,3.5,1.6,4.6,2.1,2.6,1.2,2.6,1.2,3.3,1.3.5,0,1.2,0,1.7-.2.2,0,.9-.4,1.6-.7,1.5-.7,2.2-1,2.7-1.3.2-.1.6-.3,1-.5.8-.4,1.8-.8,2.8-1.3.2-.1.7-.3.9-.4.3-.1,1.1-.5,1.8-.9.7-.3,1.6-.8,2-.9.3-.2.8-.4,1-.5.8-.4,1.3-.9,1.5-1.6,0-.3,0-.5,0-1.8,0-.8,0-1.8,0-2.2v-.7s-.2-.2-.2-.2c-.2-.2-.5-.2-1,0-1.2.5-14.1,6-14.3,6.1-.9.3-1.9.4-2.8.1-.2,0-1.2-.5-2.4-1-1.1-.5-3.2-1.4-4.7-2-1.4-.6-3.6-1.5-4.8-2-1.2-.5-2.3-1-2.4-1-1-.4-1.7-1.2-2-2.2-.1-.5-.1-1.2,0-5,0-2.8,0-2.9.4-3.5,0-.2.3-.5.4-.6.4-.4.7-.6,1.8-1,.4-.2,1.4-.5,2.2-.9s1.7-.7,1.9-.8c.2,0,1-.4,1.8-.7,8.1-3.2,7.9-3.1,8.9-3.2.8,0,1.8,0,2.6.3.2,0,1.4.6,4.2,1.9.7.3,1.8.8,2.6,1.2.8.4,1.6.7,1.8.8.2,0,.9.4,1.5.7.7.3,1.3.6,1.5.7.2,0,.7.3,1.2.5.9.4,1.1.5,1.4.8.6.6.7,1.6.3,2.5-.1.3-.5.7-.8.8-.1,0-.8.4-1.6.7-.8.3-1.5.7-1.7.8-.1,0-1.1.5-2.1.9-1,.5-2,.9-2.1.9-1.8.8-4.9,2.1-5.2,2.2-1,.3-2.2.2-3.1-.2-.2,0-2.6-1.1-5.4-2.2s-5.6-2.3-6.2-2.6c-1.2-.5-1.3-.6-1.4-1-.1-.5.2-.9.7-1,.2,0,.6.1,6.6,2.6,4.9,2.1,6.5,2.7,6.8,2.7.5,0,1.2,0,1.7,0,.2,0,1-.4,1.8-.7.8-.4,2-.9,2.6-1.1,2.2-1,2.7-1.2,2.9-1.3.1,0,1.2-.5,2.3-1,1.2-.5,2.3-1,2.4-1.1.4-.2.5-.3.5-.6s-.1-.4-.5-.6c-.2,0-.8-.4-1.5-.7-1.4-.6-7.5-3.4-8-3.7-2.5-1.2-3.6-1.6-4-1.7-.6-.2-1.9-.2-2.4,0-.2,0-3.1,1.2-6.5,2.5-3.4,1.3-6.6,2.6-7.1,2.8-1,.4-1.2.5-1.4.8-.3.3-.3.3-.3,3.9,0,3.5,0,3.6.1,4,.2.4.5.6,1.3.9.3.1,2.3,1,4.3,1.8,2,.9,4.9,2.1,6.4,2.7,1.5.7,2.9,1.2,3.1,1.3.2,0,.4,0,.8,0,.6,0,.6,0,2.6-.9.3-.1,1.6-.7,2.9-1.2,1.2-.5,2.4-1,2.7-1.2.3-.1.6-.3.8-.3.2,0,1.7-.7,3.4-1.5,1.7-.7,3.2-1.4,3.4-1.4,1.1-.3,2.3.4,2.7,1.6,0,.2.2,4.3.2,4.7-.1,1.3-.7,2.3-1.7,3-.3.2-.1.1-11.4,5.4-1.6.7-3.1,1.4-3.3,1.5-.8.3-1.9.4-2.8.2h0Z"></path><path id="path827" class="st0" d="M42.2,53.3c-.5-.2-.6-.3-.6-.3,0-.4,0-2,.1-2.1v-.2s.6.3.6.3c.3.1.6.3.6.3,0,0-.1,2.3-.1,2.3,0,0-.3-.1-.6-.3h0ZM39.3,52c-1.3-.6-1.2-.6-3.5-1.6-1-.5-2.3-1.1-2.9-1.3l-1-.4v-1.2c0-1.1,0-1.2,0-1.2,0,0,.7.3,1.5.7.8.4,1.8.8,2.3,1.1.5.2,1.3.6,1.7.8s1.3.6,1.9.9c.6.3,1.2.5,1.2.6,0,0,0,.5,0,1.2,0,.9,0,1.1-.2,1.1,0,0-.6-.2-1.2-.5h0Z"></path><path id="path829" class="st0" d="M42.2,61.9c-.5-.2-.6-.3-.6-.3,0-.4,0-2,.1-2.1v-.2s.6.3.6.3c.3.1.6.3.6.3,0,0-.1,2.3-.1,2.3,0,0-.3-.1-.6-.3h0ZM39.3,60.6c-1.3-.6-1.2-.6-3.5-1.6-1-.5-2.3-1.1-2.9-1.3l-1-.4v-1.2c0-1.1,0-1.2,0-1.2,0,0,.7.3,1.5.7.8.4,1.8.8,2.3,1.1.5.2,1.3.6,1.7.8.4.2,1.3.6,1.9.9.6.3,1.2.5,1.2.6s0,.5,0,1.2c0,.9,0,1.1-.2,1.1,0,0-.6-.2-1.2-.5h0Z"></path><g id="text835"><path id="path853" d="M71.2,43.9v-2.3h3c.4,0,.7-.1.9-.4.2-.3.3-.6.3-1.1v-2.2c0-.5-.1-.9-.3-1.1-.2-.3-.5-.4-.9-.4h-3s0-2.3,0-2.3h3c.8,0,1.4.1,2,.4.6.3,1,.7,1.3,1.2s.4,1.2.4,2v2.6c0,.8-.1,1.4-.4,2-.3.5-.7.9-1.3,1.2s-1.2.4-2,.4h-3ZM70,50.2v-16.2h2.4s0,16.2,0,16.2h-2.4Z"></path><path id="path855" d="M83.8,50.3c-.9,0-1.6-.1-2.2-.5s-1.1-.8-1.4-1.3-.5-1.3-.5-2.1v-8.7c0-.8.2-1.6.5-2.1s.8-1,1.4-1.3c.6-.3,1.3-.5,2.2-.5s1.6.1,2.2.5c.6.3,1.1.7,1.4,1.3s.5,1.3.5,2.1v8.7c0,.8-.2,1.5-.5,2.1s-.8,1-1.4,1.4-1.3.5-2.2.5ZM83.8,47.9c.5,0,.9-.1,1.2-.4.3-.3.4-.7.4-1.2v-8.4c0-.5-.1-.9-.4-1.2-.3-.3-.7-.4-1.2-.4s-.9.2-1.2.5c-.3.3-.4.7-.4,1.2v8.4c0,.5.1.9.4,1.2.3.3.7.4,1.2.4Z"></path><path id="path857" d="M89.8,50.1v-16.2h2.4s0,16.2,0,16.2h-2.4ZM91,50.1v-2.3h5.7s0,2.3,0,2.3h-5.7Z"></path><path id="path859" d="M104.7,33.8l-3,9.7v6.5h-2.4s0-6.5,0-6.5l-3.1-9.7h2.5s1.8,6.8,1.8,6.8l1.7-6.9h2.5Z"></path></g><g id="text845"><path id="path874" d="M74.3,55.6c0,0,.1,0,.1.1v.5c0,0,0,.1-.1.1h-1.7s0,0,0,0v8.1c0,0,0,.1-.1.1h-.7c0,0-.1,0-.1-.1v-8.1s0,0,0,0h-1.6c0,0-.1,0-.1-.1v-.5c0,0,0-.1.1-.1h4.3Z"></path><path id="path876" d="M81.4,56.3c0,0,0,.1-.1.1h-3s0,0,0,0v3.2s0,0,0,0h1.9c0,0,.1,0,.1.1v.6c0,0,0,.1-.1.1h-1.9s0,0,0,0v3.2s0,0,0,0h3c0,0,.1,0,.1.1v.5c0,0,0,.1-.1.1h-3.8c0,0-.1,0-.1-.1v-8.8c0,0,0-.1.1-.1h3.8c0,0,.1,0,.1.1v.5Z"></path><path id="path878" d="M86.3,64.8c-.7,0-1.2-.2-1.6-.6-.4-.4-.6-.9-.6-1.6v-4.8c0-.7.2-1.2.6-1.6.4-.4.9-.6,1.6-.6s1.2.2,1.6.6c.4.4.6.9.6,1.6v.2c0,0,0,.1-.1.1h-.7c0,0-.1,0-.1,0v-.3c0-.4-.1-.7-.3-1s-.5-.4-.9-.4-.7.1-.9.4c-.2.3-.3.6-.3,1v5c0,.4.1.7.3,1,.2.2.6.4.9.4s.7-.1.9-.4c.2-.3.3-.6.3-1v-.3c0,0,0-.1.1-.1h.7c0,0,.1,0,.1.2v.2c0,.7-.2,1.2-.6,1.6s-.9.6-1.6.6h0Z"></path><path id="path880" d="M94.9,55.7c0,0,0-.1.1-.1h.7c0,0,.1,0,.1.1v8.8c0,0,0,.1-.1.1h-.7c0,0-.1,0-.1-.1v-4s0,0,0,0h-2.3s0,0,0,0v4c0,0,0,.1-.1.1h-.7c0,0-.1,0-.1-.1v-8.8c0,0,0-.1.1-.1h.7c0,0,.1,0,.1.1v3.9s0,0,0,0h2.3s0,0,0,0v-3.9Z"></path><path id="path882" d="M102.7,55.7c0,0,0-.1.1-.1h.6c0,0,.1,0,.1.1v8.8c0,0,0,.1-.1.1h-.8c0,0-.1,0-.1-.1l-2.5-6.7s0,0,0,0c0,0,0,0,0,0v6.7c0,0,0,.1-.1.1h-.7c0,0-.1,0-.1-.1v-8.8c0,0,0-.1.1-.1h.8c0,0,.1,0,.1.1l2.5,6.7s0,0,0,0c0,0,0,0,0,0v-6.7Z"></path><path id="path884" d="M108.9,64.7c-.7,0-1.2-.2-1.6-.6-.4-.4-.6-1-.6-1.6v-4.7c0-.7.2-1.2.6-1.6.4-.4,1-.6,1.6-.6s1.2.2,1.6.6.6,1,.6,1.6v4.7c0,.7-.2,1.2-.6,1.6-.4.4-1,.6-1.6.6ZM108.9,63.9c.4,0,.7-.1,1-.4.3-.3.4-.6.4-1v-4.8c0-.4-.1-.8-.4-1-.2-.3-.6-.4-1-.4s-.7.1-.9.4c-.2.3-.4.6-.4,1v4.8c0,.4.1.8.4,1,.2.3.6.4.9.4Z"></path><path id="path886" d="M114.4,64.5c0,0-.1,0-.1-.1v-8.8c0,0,0-.1.1-.1h.7c0,0,.1,0,.1.1v8.1s0,0,0,0h3c0,0,.1,0,.1.1v.5c0,0,0,.1-.1.1h-3.8Z"></path><path id="path888" d="M122.8,64.6c-.7,0-1.2-.2-1.6-.6-.4-.4-.6-1-.6-1.6v-4.7c0-.7.2-1.2.6-1.6.4-.4,1-.6,1.6-.6s1.2.2,1.6.6c.4.4.6,1,.6,1.6v4.7c0,.7-.2,1.2-.6,1.6-.4.4-1,.6-1.6.6ZM122.8,63.8c.4,0,.7-.1,1-.4.3-.3.4-.6.4-1v-4.8c0-.4-.1-.8-.4-1-.2-.3-.6-.4-1-.4s-.7.1-.9.4c-.2.3-.4.6-.4,1v4.8c0,.4.1.8.4,1,.2.3.6.4.9.4Z"></path><path id="path890" d="M130.1,64.6c-.7,0-1.2-.2-1.6-.6-.4-.4-.6-.9-.6-1.6v-5c0-.7.2-1.2.6-1.6.4-.4.9-.6,1.6-.6s1.2.2,1.6.6c.4.4.6.9.6,1.6v.6c0,0,0,.1-.1.1h-.7c0,0-.1,0-.1-.1v-.6c0-.4-.1-.7-.3-1-.2-.2-.5-.4-.9-.4s-.7.1-.9.4c-.2.3-.3.6-.3,1v5c0,.4.1.7.3,1,.2.2.6.4.9.4s.7-.1.9-.4c.2-.3.3-.6.3-1v-1.7s0,0,0,0h-1.1c0,0-.1,0-.1-.1v-.5c0,0,0-.1.1-.1h2c0,0,.1,0,.1.1v2.4c0,.7-.2,1.2-.6,1.6-.4.4-.9.6-1.6.6h0Z"></path><path id="path892" d="M135.6,64.5c0,0-.1,0-.1-.1v-8.8c0,0,0-.1.1-.1h.7c0,0,.1,0,.1.1v8.8c0,0,0,.1-.1.1h-.7Z"></path><path id="path894" d="M143.8,56c0,0,0,.1-.1.1h-3s0,0,0,0v3.2s0,0,0,0h1.9c0,0,.1,0,.1.1v.6c0,0,0,.1-.1.1h-1.9s0,0,0,0v3.2s0,0,0,0h3c0,0,.1,0,.1.1v.5c0,0,0,.1-.1.1h-3.8c0,0-.1,0-.1-.1v-8.8c0,0,0-.1.1-.1h3.8c0,0,.1,0,.1.1v.5Z"></path><path id="path896" d="M148.5,64.5c-.6,0-1.2-.2-1.6-.6-.4-.4-.6-1-.6-1.7v-.3c0,0,0-.1.1-.1h.6c0,0,.1,0,.1.1v.3c0,.5.1.8.3,1.1.2.3.5.4.9.4s.7-.1.9-.4c.2-.3.4-.6.4-1.1s0-.5-.2-.8c-.1-.2-.3-.4-.5-.6-.2-.2-.5-.4-.9-.7-.4-.3-.8-.6-1-.8-.3-.2-.5-.5-.6-.8-.2-.3-.2-.7-.2-1.1,0-.7.2-1.2.6-1.6.4-.4.9-.6,1.5-.6s1.2.2,1.6.6c.4.4.6,1,.6,1.7v.3c0,0,0,.1-.1.1h-.6c0,0-.1,0-.1-.1v-.3c0-.5-.1-.8-.3-1.1-.2-.3-.5-.4-.9-.4s-.6.1-.9.4c-.2.2-.3.6-.3,1s0,.5.1.7c.1.2.3.4.5.6s.5.4.9.7c.5.4.9.7,1.2.9.3.2.5.5.6.8.1.3.2.6.2,1,0,.7-.2,1.3-.6,1.7-.4.4-.9.6-1.6.6h0Z"></path></g><path id="path863" class="st0" d="M109.8,50.4c-.8,0-1.6-.1-2.2-.4-.6-.3-1-.7-1.4-1.3-.3-.6-.5-1.3-.5-2.1v-.8h2.4s0,.8,0,.8c0,.5.1.9.4,1.2.3.3.7.4,1.2.4.5,0,.9-.1,1.1-.4.3-.3.4-.7.4-1.2v-1.4c0-.4-.1-.7-.3-.9-.2-.3-.5-.5-.8-.7-.3-.2-.7-.4-1.1-.6-.4-.2-.8-.4-1.1-.6-.4-.2-.7-.5-1.1-.8-.3-.3-.6-.7-.8-1.2-.2-.5-.3-1-.3-1.7v-.9c0-1.2.3-2.2,1-2.8.7-.7,1.7-1,2.9-1,1.2,0,2.2.3,2.9,1,.7.7,1,1.6,1,2.9v.9h-2.4s0-.8,0-.8c0-.5-.1-.9-.4-1.2-.2-.3-.6-.4-1.1-.4-.5,0-.9.1-1.1.4-.3.3-.4.6-.4,1.1v1c0,.4.1.8.3,1,.2.3.5.5.9.7.4.2.8.4,1.2.6.4.2.7.4,1.1.6.4.2.7.4,1,.7.3.3.5.6.7,1.1.2.4.3,1,.3,1.7v1.4c0,1.2-.3,2.2-1,2.9-.7.7-1.7,1-2.9,1h0Z"></path><path id="path865" class="st0" d="M117.5,50.2v-14.9h2.4s0,14.9,0,14.9h-2.4ZM114.7,36.3v-2.3h8s0,2.3,0,2.3h-8Z"></path><path id="path867" class="st0" d="M122.4,50.2l3.8-16.2h1.9s3.8,16.2,3.8,16.2h-2.5s-2.3-11.8-2.3-11.8l-2.3,11.8h-2.5ZM124.9,47.1v-2.3h4.6s0,2.3,0,2.3h-4.6Z"></path><path id="path869" class="st0" d="M136.2,50.3c-.8,0-1.5-.2-2.1-.5-.6-.3-1-.8-1.3-1.4-.3-.6-.4-1.4-.4-2.2v-8.3c0-.9.1-1.6.4-2.2.3-.6.7-1.1,1.3-1.4.6-.3,1.3-.5,2.1-.5.8,0,1.5.2,2.1.5.6.3,1,.8,1.3,1.4.3.6.4,1.4.4,2.2v1h-2.5s0-1,0-1c0-.4,0-.7-.2-.9-.1-.3-.3-.4-.5-.6-.2-.1-.5-.2-.7-.2-.4,0-.8.2-1,.5-.2.3-.4.7-.4,1.3v8.3c0,.5.1,1,.4,1.3.2.3.6.4,1,.4.4,0,.8-.2,1-.5.2-.3.4-.7.4-1.3v-1h2.5s0,1,0,1c0,.9-.1,1.6-.4,2.2-.3.6-.7,1.1-1.3,1.4-.6.3-1.3.5-2.1.5Z"></path><path id="path871" class="st0" d="M143.5,47.3v-4.5c0,0,3.8-8.9,3.8-8.9h2.7s-6.5,13.4-6.5,13.4ZM141.7,50.1v-16.2h2.4s0,16.2,0,16.2h-2.4ZM147.8,50.1l-2.9-8.7,1.7-1.7,4,10.4h-2.7Z"></path></g><metadata></metadata></svg>