<svg xmlns="http://www.w3.org/2000/svg" xmlns:i="http://ns.adobe.com/AdobeIllustrator/10.0/" xmlns:xlink="http://www.w3.org/1999/xlink" viewBox="0 0 177.8 100"><defs><style>      .st0 {        fill: url(#linear-gradient2);      }      .st1 {        fill: #515252;        font-family: Montserrat-Regular, Montserrat;        font-size: 8px;        letter-spacing: .3em;      }      .st2 {        font-family: Montserrat-Light, Montserrat;        font-size: 5.5px;        font-weight: 300;        letter-spacing: .2em;      }      .st2, .st3 {        fill: #313d45;      }      .st4 {        fill: url(#linear-gradient1);      }      .st5 {        fill: #bc202e;      }      .st6 {        fill: #122248;      }      .st7 {        fill: #bf9667;      }      .st8 {        fill: #394149;      }      .st9 {        fill: url(#linear-gradient3);      }      .st10 {        display: none;      }      .st11 {        fill: #424143;      }      .st12 {        fill: url(#linear-gradient);      }    </style><linearGradient id="linear-gradient" x1="56.3" y1="43.2" x2="76.5" y2="43.2" gradientUnits="userSpaceOnUse"><stop offset="0" stop-color="#231f20"></stop><stop offset="0" stop-color="#231f25"></stop><stop offset="0" stop-color="#24203b"></stop><stop offset="0" stop-color="#25214c"></stop><stop offset="0" stop-color="#252158"></stop><stop offset="0" stop-color="#25215f"></stop><stop offset=".1" stop-color="#262261"></stop><stop offset="1" stop-color="#00adee"></stop></linearGradient><linearGradient id="linear-gradient1" x1="106.1" y1="37.8" x2="112.5" y2="38.5" xlink:href="#linear-gradient"></linearGradient><linearGradient id="linear-gradient2" x1="113.9" y1="43.4" x2="127.1" y2="43.4" gradientUnits="userSpaceOnUse"><stop offset="0" stop-color="#231f20"></stop><stop offset="0" stop-color="#231f25"></stop><stop offset="0" stop-color="#24203b"></stop><stop offset=".1" stop-color="#25214c"></stop><stop offset=".2" stop-color="#252158"></stop><stop offset=".3" stop-color="#25215f"></stop><stop offset=".5" stop-color="#262261"></stop><stop offset="1" stop-color="#00adee"></stop></linearGradient><linearGradient id="linear-gradient3" x1="43.7" y1="39.8" x2="61.1" y2="34.1" gradientUnits="userSpaceOnUse"><stop offset="0" stop-color="#262261"></stop><stop offset=".1" stop-color="#1a4b8b"></stop><stop offset=".3" stop-color="#116eae"></stop><stop offset=".4" stop-color="#098aca"></stop><stop offset=".5" stop-color="#049dde"></stop><stop offset=".6" stop-color="#01a9ea"></stop><stop offset=".7" stop-color="#00adee"></stop></linearGradient></defs><g id="logoipsum"><g class="st10"><path class="st8" d="M53.7,45.7c.4,0,.5.1.5.5v7.9h4.1c.3,0,.5.1.5.5v.7c0,.3-.1.5-.5.5h-5.4c-.3,0-.5-.1-.5-.5v-9.1c0-.3.1-.5.5-.5h.8Z"></path><path class="st8" d="M62.3,49.2c0-2.3,1.5-3.7,4-3.7s4,1.4,4,3.7v3.1c0,2.3-1.5,3.7-4,3.7s-4-1.4-4-3.7v-3.1ZM68.6,49.2c0-1.3-.8-2-2.3-2s-2.3.7-2.3,2v3.1c0,1.3.8,2,2.3,2s2.3-.7,2.3-2v-3.1Z"></path><path class="st8" d="M82.2,50.3c.4,0,.5.1.5.5v1.9c0,.9-.4,1.8-1.1,2.4-.8.7-1.9,1-3,.9-2.6,0-4-1.4-4-3.7v-3.1c0-2.3,1.5-3.7,4-3.7s3.3.8,3.8,2.4c.1.2,0,.5-.2.6,0,0,0,0-.1,0l-.8.3c-.3.1-.5,0-.6-.3-.3-.9-1.2-1.4-2.2-1.3-1.5,0-2.3.7-2.3,2v3.2c0,1.3.8,2,2.3,2s2.4-.7,2.4-1.6v-.7h-2.2c-.4,0-.5-.1-.5-.5v-.7c0-.3.1-.5.5-.5h3.4Z"></path><path class="st8" d="M86.8,49.2c0-2.3,1.5-3.7,4-3.7s4,1.4,4,3.7v3.1c0,2.3-1.5,3.7-4,3.7s-4-1.4-4-3.7v-3.1ZM93.1,49.2c0-1.3-.8-2-2.3-2s-2.3.7-2.3,2v3.1c0,1.3.8,2,2.3,2s2.3-.7,2.3-2v-3.1Z"></path><path class="st8" d="M99.5,46c0-.2,0-.3.3-.3h.5c.2,0,.3,0,.3.3v9.5c0,.2,0,.3-.3.3h-.5c-.2,0-.3,0-.3-.3v-9.5Z"></path><path class="st8" d="M109.7,45.7c1.7,0,3.1,1.4,3.1,3.1,0,1.7-1.4,3.1-3.1,3.1h-3v3.5c0,.2,0,.3-.3.3h-.5c-.2,0-.3,0-.3-.3v-9.5c0-.2,0-.3.3-.3h3.7ZM109.6,51c1.2,0,2.2-1,2.2-2.2s-1-2.2-2.2-2.2h-3v4.4h3Z"></path><path class="st8" d="M120.6,45.5c1.6-.2,3.1.7,3.7,2.2,0,.2,0,.3-.2.4l-.4.2c-.2,0-.2,0-.4-.1-.5-1.1-1.6-1.8-2.8-1.6-1.7,0-2.6.7-2.6,1.9,0,.8.5,1.4,1.3,1.5.5.2,1.1.3,1.7.3.7,0,1.4.2,2,.4,1,.3,1.7,1.3,1.6,2.4,0,1.9-1.4,3-3.9,3-1.7.2-3.3-.8-3.8-2.4,0-.1,0-.3.1-.4,0,0,0,0,0,0l.4-.2c.1,0,.3,0,.4.1,0,0,0,0,0,0,.5,1.2,1.6,1.9,2.9,1.8,1.9,0,2.8-.7,2.8-2,0-.7-.5-1.4-1.2-1.5-.5-.2-1.1-.2-1.6-.3h-1.1c-.3-.2-.7-.3-1-.4-.3,0-.6-.3-.9-.5-.5-.5-.8-1.2-.8-1.9,0-1.8,1.4-2.9,3.7-2.9Z"></path><path class="st8" d="M129.9,52.3c0,1.5,1.4,2.7,2.9,2.6,1.4,0,2.5-1.2,2.6-2.6v-6.3c0-.2,0-.3.3-.3h.5c.2,0,.3,0,.3.3v6.3c0,2.3-1.3,3.6-3.8,3.6s-3.8-1.4-3.8-3.6v-6.3c0-.2,0-.3.3-.3h.5c.2,0,.3,0,.3.3v6.3Z"></path><path class="st8" d="M150.3,45.7c.2,0,.3,0,.3.3v9.5c0,.2,0,.3-.3.3h-.4c-.2,0-.3,0-.3-.3v-5.8c0-.8,0-1.7.2-2.5h0c-.3.8-.7,1.5-1.1,2.2l-2.1,3.8c0,.1-.2.2-.3.2h-.3c-.1,0-.3,0-.3-.2l-2.2-3.8c-.4-.7-.7-1.4-1-2.2h0c.1.8.2,1.7.2,2.5v5.8c0,.2,0,.3-.3.3h-.4c-.2,0-.3,0-.3-.3v-9.5c0-.2,0-.3.3-.3h.4c.2,0,.3,0,.4.2l3.5,6.2,3.5-6.2c.1-.2.2-.2.4-.2h.4Z"></path><path class="st8" d="M35.9,53.5v7.2c0,.6-.5,1-1,1s-1-.5-1-1v-7.2c.3.2.6.3,1,.3.4,0,.8-.1,1.1-.4ZM44.8,51.5c-.6,0-1,.4-1,1v1.3c0,.6.5,1,1,1s1-.5,1-1v-1.2c0-.6-.4-1-.9-1.1,0,0,0,0-.1,0ZM31.6,56.3c-.4,0-.7-.1-1-.3v7.2c0,.6.5,1,1.1,1s1-.5,1-1h0v-7.2c-.3.2-.7.3-1.1.3ZM41.6,49.3c-.6,0-1,.4-1,.9,0,0,0,0,0,0v5.6c0,.6.5,1.1,1,1.1s1.1-.5,1.1-1h0v-5.5c0-.6-.4-1-.9-1.1,0,0-.1,0-.2,0h0ZM38.3,51.4c-.4,0-.7-.1-1-.3v7.3c0,.6.5,1.1,1,1.1s1.1-.5,1.1-1h0v-7.3c-.3.2-.7.4-1.1.4h0ZM29.3,57v-20.3c0-.5-.4-.9-.9-.9h-.2c-.5,0-.9.4-.9.9v20.3c0,.5.4.9.9.9h.2c.5,0,.9-.4.9-.9ZM31.7,55.5h-.2c-.5,0-.9-.4-.9-.9v-15.5c0-.5.4-.9.9-.9h.2c.5,0,.9.4.9.9v15.5c0,.5-.4.9-.9.9h0ZM35,53.1h-.2c-.5,0-.9-.4-.9-.9h0v-10.7c0-.5.4-.9.9-.9,0,0,0,0,0,0h.2c.5,0,.9.4.9.9v10.7c0,.5-.4.9-.9.9h0ZM38.3,50.7h-.2c-.5,0-.9-.4-.9-.9v-5.8c0-.5.4-1,.9-1,0,0,0,0,0,0h.2c.5,0,.9.4.9.9v5.8c0,.5-.4.9-.9.9,0,0,0,0,0,0h0ZM41.6,48.5h-.2c-.5,0-.9-.4-.9-.9v-1.5c0-.5.4-.9.9-.9h.2c.5,0,.9.4.9.9v1.5c0,.5-.4.9-.9.9h0Z"></path></g></g><g id="Layer_2"><g id="layer1" class="st10"><path id="path825" d="M44.3,66.2c-.7-.1-1.4-.4-4.6-1.8-.2,0-1.2-.5-2.2-1-1-.5-2-.9-2.1-1-.1,0-.6-.3-1.1-.5-.4-.2-1-.5-1.4-.6-.3-.1-.9-.4-1.3-.6-.4-.2-1-.4-1.3-.6-.3-.1-1.1-.5-1.7-.8-.6-.3-1.2-.6-1.3-.6-.2-.1-.3-.4-.3-.7s.2-.5.3-.6c.2-.2.4-.2.7,0,.2,0,2,.9,3.3,1.5.4.2,1,.5,1.5.7.4.2.9.4,1,.5.2,0,1.5.7,3,1.4,1.5.7,3.5,1.6,4.6,2.1,2.6,1.2,2.6,1.2,3.3,1.3.5,0,1.2,0,1.7-.2.2,0,.9-.4,1.6-.7,1.5-.7,2.2-1,2.7-1.3.2-.1.6-.3,1-.5.8-.4,1.8-.8,2.8-1.3.2-.1.7-.3.9-.4.3-.1,1.1-.5,1.8-.9.7-.3,1.6-.8,2-.9.3-.2.8-.4,1-.5.8-.4,1.3-.9,1.5-1.6,0-.3,0-.5,0-1.8,0-.8,0-1.8,0-2.2v-.7s-.2-.2-.2-.2c-.2-.2-.5-.2-1,0-1.2.5-14.1,6-14.3,6.1-.9.3-1.9.4-2.8.1-.2,0-1.2-.5-2.4-1-1.1-.5-3.2-1.4-4.7-2-1.4-.6-3.6-1.5-4.8-2-1.2-.5-2.3-1-2.4-1-1-.4-1.7-1.2-2-2.2-.1-.5-.1-1.2,0-5,0-2.8,0-2.9.4-3.5,0-.2.3-.5.4-.6.4-.4.7-.6,1.8-1,.4-.2,1.4-.5,2.2-.9s1.7-.7,1.9-.8c.2,0,1-.4,1.8-.7,8.1-3.2,7.9-3.1,8.9-3.2.8,0,1.8,0,2.6.3.2,0,1.4.6,4.2,1.9.7.3,1.8.8,2.6,1.2.8.4,1.6.7,1.8.8.2,0,.9.4,1.5.7.7.3,1.3.6,1.5.7.2,0,.7.3,1.2.5.9.4,1.1.5,1.4.8.6.6.7,1.6.3,2.5-.1.3-.5.7-.8.8-.1,0-.8.4-1.6.7-.8.3-1.5.7-1.7.8-.1,0-1.1.5-2.1.9-1,.5-2,.9-2.1.9-1.8.8-4.9,2.1-5.2,2.2-1,.3-2.2.2-3.1-.2-.2,0-2.6-1.1-5.4-2.2s-5.6-2.3-6.2-2.6c-1.2-.5-1.3-.6-1.4-1-.1-.5.2-.9.7-1,.2,0,.6.1,6.6,2.6,4.9,2.1,6.5,2.7,6.8,2.7.5,0,1.2,0,1.7,0,.2,0,1-.4,1.8-.7.8-.4,2-.9,2.6-1.1,2.2-1,2.7-1.2,2.9-1.3.1,0,1.2-.5,2.3-1,1.2-.5,2.3-1,2.4-1.1.4-.2.5-.3.5-.6s-.1-.4-.5-.6c-.2,0-.8-.4-1.5-.7-1.4-.6-7.5-3.4-8-3.7-2.5-1.2-3.6-1.6-4-1.7-.6-.2-1.9-.2-2.4,0-.2,0-3.1,1.2-6.5,2.5-3.4,1.3-6.6,2.6-7.1,2.8-1,.4-1.2.5-1.4.8-.3.3-.3.3-.3,3.9,0,3.5,0,3.6.1,4,.2.4.5.6,1.3.9.3.1,2.3,1,4.3,1.8,2,.9,4.9,2.1,6.4,2.7,1.5.7,2.9,1.2,3.1,1.3.2,0,.4,0,.8,0,.6,0,.6,0,2.6-.9.3-.1,1.6-.7,2.9-1.2,1.2-.5,2.4-1,2.7-1.2.3-.1.6-.3.8-.3.2,0,1.7-.7,3.4-1.5,1.7-.7,3.2-1.4,3.4-1.4,1.1-.3,2.3.4,2.7,1.6,0,.2.2,4.3.2,4.7-.1,1.3-.7,2.3-1.7,3-.3.2-.1.1-11.4,5.4-1.6.7-3.1,1.4-3.3,1.5-.8.3-1.9.4-2.8.2h0Z"></path><path id="path827" class="st7" d="M42.2,53.3c-.5-.2-.6-.3-.6-.3,0-.4,0-2,.1-2.1v-.2s.6.3.6.3c.3.1.6.3.6.3,0,0-.1,2.3-.1,2.3,0,0-.3-.1-.6-.3h0ZM39.3,52c-1.3-.6-1.2-.6-3.5-1.6-1-.5-2.3-1.1-2.9-1.3l-1-.4v-1.2c0-1.1,0-1.2,0-1.2,0,0,.7.3,1.5.7.8.4,1.8.8,2.3,1.1.5.2,1.3.6,1.7.8s1.3.6,1.9.9c.6.3,1.2.5,1.2.6,0,0,0,.5,0,1.2,0,.9,0,1.1-.2,1.1,0,0-.6-.2-1.2-.5h0Z"></path><path id="path829" class="st7" d="M42.2,61.9c-.5-.2-.6-.3-.6-.3,0-.4,0-2,.1-2.1v-.2s.6.3.6.3c.3.1.6.3.6.3,0,0-.1,2.3-.1,2.3,0,0-.3-.1-.6-.3h0ZM39.3,60.6c-1.3-.6-1.2-.6-3.5-1.6-1-.5-2.3-1.1-2.9-1.3l-1-.4v-1.2c0-1.1,0-1.2,0-1.2,0,0,.7.3,1.5.7.8.4,1.8.8,2.3,1.1.5.2,1.3.6,1.7.8.4.2,1.3.6,1.9.9.6.3,1.2.5,1.2.6s0,.5,0,1.2c0,.9,0,1.1-.2,1.1,0,0-.6-.2-1.2-.5h0Z"></path><g id="text835"><path id="path853" d="M71.2,43.9v-2.3h3c.4,0,.7-.1.9-.4.2-.3.3-.6.3-1.1v-2.2c0-.5-.1-.9-.3-1.1-.2-.3-.5-.4-.9-.4h-3s0-2.3,0-2.3h3c.8,0,1.4.1,2,.4.6.3,1,.7,1.3,1.2s.4,1.2.4,2v2.6c0,.8-.1,1.4-.4,2-.3.5-.7.9-1.3,1.2s-1.2.4-2,.4h-3ZM70,50.2v-16.2h2.4s0,16.2,0,16.2h-2.4Z"></path><path id="path855" d="M83.8,50.3c-.9,0-1.6-.1-2.2-.5s-1.1-.8-1.4-1.3-.5-1.3-.5-2.1v-8.7c0-.8.2-1.6.5-2.1s.8-1,1.4-1.3c.6-.3,1.3-.5,2.2-.5s1.6.1,2.2.5c.6.3,1.1.7,1.4,1.3s.5,1.3.5,2.1v8.7c0,.8-.2,1.5-.5,2.1s-.8,1-1.4,1.4-1.3.5-2.2.5ZM83.8,47.9c.5,0,.9-.1,1.2-.4.3-.3.4-.7.4-1.2v-8.4c0-.5-.1-.9-.4-1.2-.3-.3-.7-.4-1.2-.4s-.9.2-1.2.5c-.3.3-.4.7-.4,1.2v8.4c0,.5.1.9.4,1.2.3.3.7.4,1.2.4Z"></path><path id="path857" d="M89.8,50.1v-16.2h2.4s0,16.2,0,16.2h-2.4ZM91,50.1v-2.3h5.7s0,2.3,0,2.3h-5.7Z"></path><path id="path859" d="M104.7,33.8l-3,9.7v6.5h-2.4s0-6.5,0-6.5l-3.1-9.7h2.5s1.8,6.8,1.8,6.8l1.7-6.9h2.5Z"></path></g><g id="text845"><path id="path874" d="M74.3,55.6c0,0,.1,0,.1.1v.5c0,0,0,.1-.1.1h-1.7s0,0,0,0v8.1c0,0,0,.1-.1.1h-.7c0,0-.1,0-.1-.1v-8.1s0,0,0,0h-1.6c0,0-.1,0-.1-.1v-.5c0,0,0-.1.1-.1h4.3Z"></path><path id="path876" d="M81.4,56.3c0,0,0,.1-.1.1h-3s0,0,0,0v3.2s0,0,0,0h1.9c0,0,.1,0,.1.1v.6c0,0,0,.1-.1.1h-1.9s0,0,0,0v3.2s0,0,0,0h3c0,0,.1,0,.1.1v.5c0,0,0,.1-.1.1h-3.8c0,0-.1,0-.1-.1v-8.8c0,0,0-.1.1-.1h3.8c0,0,.1,0,.1.1v.5Z"></path><path id="path878" d="M86.3,64.8c-.7,0-1.2-.2-1.6-.6-.4-.4-.6-.9-.6-1.6v-4.8c0-.7.2-1.2.6-1.6.4-.4.9-.6,1.6-.6s1.2.2,1.6.6c.4.4.6.9.6,1.6v.2c0,0,0,.1-.1.1h-.7c0,0-.1,0-.1,0v-.3c0-.4-.1-.7-.3-1s-.5-.4-.9-.4-.7.1-.9.4c-.2.3-.3.6-.3,1v5c0,.4.1.7.3,1,.2.2.6.4.9.4s.7-.1.9-.4c.2-.3.3-.6.3-1v-.3c0,0,0-.1.1-.1h.7c0,0,.1,0,.1.2v.2c0,.7-.2,1.2-.6,1.6s-.9.6-1.6.6h0Z"></path><path id="path880" d="M94.9,55.7c0,0,0-.1.1-.1h.7c0,0,.1,0,.1.1v8.8c0,0,0,.1-.1.1h-.7c0,0-.1,0-.1-.1v-4s0,0,0,0h-2.3s0,0,0,0v4c0,0,0,.1-.1.1h-.7c0,0-.1,0-.1-.1v-8.8c0,0,0-.1.1-.1h.7c0,0,.1,0,.1.1v3.9s0,0,0,0h2.3s0,0,0,0v-3.9Z"></path><path id="path882" d="M102.7,55.7c0,0,0-.1.1-.1h.6c0,0,.1,0,.1.1v8.8c0,0,0,.1-.1.1h-.8c0,0-.1,0-.1-.1l-2.5-6.7s0,0,0,0c0,0,0,0,0,0v6.7c0,0,0,.1-.1.1h-.7c0,0-.1,0-.1-.1v-8.8c0,0,0-.1.1-.1h.8c0,0,.1,0,.1.1l2.5,6.7s0,0,0,0c0,0,0,0,0,0v-6.7Z"></path><path id="path884" d="M108.9,64.7c-.7,0-1.2-.2-1.6-.6-.4-.4-.6-1-.6-1.6v-4.7c0-.7.2-1.2.6-1.6.4-.4,1-.6,1.6-.6s1.2.2,1.6.6.6,1,.6,1.6v4.7c0,.7-.2,1.2-.6,1.6-.4.4-1,.6-1.6.6ZM108.9,63.9c.4,0,.7-.1,1-.4.3-.3.4-.6.4-1v-4.8c0-.4-.1-.8-.4-1-.2-.3-.6-.4-1-.4s-.7.1-.9.4c-.2.3-.4.6-.4,1v4.8c0,.4.1.8.4,1,.2.3.6.4.9.4Z"></path><path id="path886" d="M114.4,64.5c0,0-.1,0-.1-.1v-8.8c0,0,0-.1.1-.1h.7c0,0,.1,0,.1.1v8.1s0,0,0,0h3c0,0,.1,0,.1.1v.5c0,0,0,.1-.1.1h-3.8Z"></path><path id="path888" d="M122.8,64.6c-.7,0-1.2-.2-1.6-.6-.4-.4-.6-1-.6-1.6v-4.7c0-.7.2-1.2.6-1.6.4-.4,1-.6,1.6-.6s1.2.2,1.6.6c.4.4.6,1,.6,1.6v4.7c0,.7-.2,1.2-.6,1.6-.4.4-1,.6-1.6.6ZM122.8,63.8c.4,0,.7-.1,1-.4.3-.3.4-.6.4-1v-4.8c0-.4-.1-.8-.4-1-.2-.3-.6-.4-1-.4s-.7.1-.9.4c-.2.3-.4.6-.4,1v4.8c0,.4.1.8.4,1,.2.3.6.4.9.4Z"></path><path id="path890" d="M130.1,64.6c-.7,0-1.2-.2-1.6-.6-.4-.4-.6-.9-.6-1.6v-5c0-.7.2-1.2.6-1.6.4-.4.9-.6,1.6-.6s1.2.2,1.6.6c.4.4.6.9.6,1.6v.6c0,0,0,.1-.1.1h-.7c0,0-.1,0-.1-.1v-.6c0-.4-.1-.7-.3-1-.2-.2-.5-.4-.9-.4s-.7.1-.9.4c-.2.3-.3.6-.3,1v5c0,.4.1.7.3,1,.2.2.6.4.9.4s.7-.1.9-.4c.2-.3.3-.6.3-1v-1.7s0,0,0,0h-1.1c0,0-.1,0-.1-.1v-.5c0,0,0-.1.1-.1h2c0,0,.1,0,.1.1v2.4c0,.7-.2,1.2-.6,1.6-.4.4-.9.6-1.6.6h0Z"></path><path id="path892" d="M135.6,64.5c0,0-.1,0-.1-.1v-8.8c0,0,0-.1.1-.1h.7c0,0,.1,0,.1.1v8.8c0,0,0,.1-.1.1h-.7Z"></path><path id="path894" d="M143.8,56c0,0,0,.1-.1.1h-3s0,0,0,0v3.2s0,0,0,0h1.9c0,0,.1,0,.1.1v.6c0,0,0,.1-.1.1h-1.9s0,0,0,0v3.2s0,0,0,0h3c0,0,.1,0,.1.1v.5c0,0,0,.1-.1.1h-3.8c0,0-.1,0-.1-.1v-8.8c0,0,0-.1.1-.1h3.8c0,0,.1,0,.1.1v.5Z"></path><path id="path896" d="M148.5,64.5c-.6,0-1.2-.2-1.6-.6-.4-.4-.6-1-.6-1.7v-.3c0,0,0-.1.1-.1h.6c0,0,.1,0,.1.1v.3c0,.5.1.8.3,1.1.2.3.5.4.9.4s.7-.1.9-.4c.2-.3.4-.6.4-1.1s0-.5-.2-.8c-.1-.2-.3-.4-.5-.6-.2-.2-.5-.4-.9-.7-.4-.3-.8-.6-1-.8-.3-.2-.5-.5-.6-.8-.2-.3-.2-.7-.2-1.1,0-.7.2-1.2.6-1.6.4-.4.9-.6,1.5-.6s1.2.2,1.6.6c.4.4.6,1,.6,1.7v.3c0,0,0,.1-.1.1h-.6c0,0-.1,0-.1-.1v-.3c0-.5-.1-.8-.3-1.1-.2-.3-.5-.4-.9-.4s-.6.1-.9.4c-.2.2-.3.6-.3,1s0,.5.1.7c.1.2.3.4.5.6s.5.4.9.7c.5.4.9.7,1.2.9.3.2.5.5.6.8.1.3.2.6.2,1,0,.7-.2,1.3-.6,1.7-.4.4-.9.6-1.6.6h0Z"></path></g><path id="path863" class="st7" d="M109.8,50.4c-.8,0-1.6-.1-2.2-.4-.6-.3-1-.7-1.4-1.3-.3-.6-.5-1.3-.5-2.1v-.8h2.4s0,.8,0,.8c0,.5.1.9.4,1.2.3.3.7.4,1.2.4.5,0,.9-.1,1.1-.4.3-.3.4-.7.4-1.2v-1.4c0-.4-.1-.7-.3-.9-.2-.3-.5-.5-.8-.7-.3-.2-.7-.4-1.1-.6-.4-.2-.8-.4-1.1-.6-.4-.2-.7-.5-1.1-.8-.3-.3-.6-.7-.8-1.2-.2-.5-.3-1-.3-1.7v-.9c0-1.2.3-2.2,1-2.8.7-.7,1.7-1,2.9-1,1.2,0,2.2.3,2.9,1,.7.7,1,1.6,1,2.9v.9h-2.4s0-.8,0-.8c0-.5-.1-.9-.4-1.2-.2-.3-.6-.4-1.1-.4-.5,0-.9.1-1.1.4-.3.3-.4.6-.4,1.1v1c0,.4.1.8.3,1,.2.3.5.5.9.7.4.2.8.4,1.2.6.4.2.7.4,1.1.6.4.2.7.4,1,.7.3.3.5.6.7,1.1.2.4.3,1,.3,1.7v1.4c0,1.2-.3,2.2-1,2.9-.7.7-1.7,1-2.9,1h0Z"></path><path id="path865" class="st7" d="M117.5,50.2v-14.9h2.4s0,14.9,0,14.9h-2.4ZM114.7,36.3v-2.3h8s0,2.3,0,2.3h-8Z"></path><path id="path867" class="st7" d="M122.4,50.2l3.8-16.2h1.9s3.8,16.2,3.8,16.2h-2.5s-2.3-11.8-2.3-11.8l-2.3,11.8h-2.5ZM124.9,47.1v-2.3h4.6s0,2.3,0,2.3h-4.6Z"></path><path id="path869" class="st7" d="M136.2,50.3c-.8,0-1.5-.2-2.1-.5-.6-.3-1-.8-1.3-1.4-.3-.6-.4-1.4-.4-2.2v-8.3c0-.9.1-1.6.4-2.2.3-.6.7-1.1,1.3-1.4.6-.3,1.3-.5,2.1-.5.8,0,1.5.2,2.1.5.6.3,1,.8,1.3,1.4.3.6.4,1.4.4,2.2v1h-2.5s0-1,0-1c0-.4,0-.7-.2-.9-.1-.3-.3-.4-.5-.6-.2-.1-.5-.2-.7-.2-.4,0-.8.2-1,.5-.2.3-.4.7-.4,1.3v8.3c0,.5.1,1,.4,1.3.2.3.6.4,1,.4.4,0,.8-.2,1-.5.2-.3.4-.7.4-1.3v-1h2.5s0,1,0,1c0,.9-.1,1.6-.4,2.2-.3.6-.7,1.1-1.3,1.4-.6.3-1.3.5-2.1.5Z"></path><path id="path871" class="st7" d="M143.5,47.3v-4.5c0,0,3.8-8.9,3.8-8.9h2.7s-6.5,13.4-6.5,13.4ZM141.7,50.1v-16.2h2.4s0,16.2,0,16.2h-2.4ZM147.8,50.1l-2.9-8.7,1.7-1.7,4,10.4h-2.7Z"></path></g><g class="st10"><text class="st1" transform="translate(29.2 64.9) scale(.9 1)"><tspan x="0" y="0">ADVANCE SYSTEMS</tspan></text><path class="st6" d="M26.7,47.9h4.1c0,1.7,2.3,2.1,3.6,2.1s3.4-.3,3.4-1.8h0c0-1.5-2.2-2-3.3-2.2-5.8-1-7.3-3.5-7.3-6.6,0-6.1,6.9-6.1,6.9-6.1,5.8,0,7,4.8,7.3,5.6l-4,.9c-.3-1.4-1.4-2.4-3.2-2.4h-.1c-2.3,0-2.8,1.4-2.8,2s0,.8.4,1.2c.4.6,1.3.8,1.9.9,6.3,1.1,8.4,3.5,8.4,6.7s-2.2,5.8-7.5,5.8-7.8-4.2-7.8-6Z"></path><path class="st6" d="M58.1,47.9c-1.2,1.2-2.7,1.8-4.4,1.8-3.5,0-6.3-2.8-6.3-6.3s.8-3.6,2.1-4.7c-1.2.1-2.4.5-3.4,1.2-1.3.9-1.9,1.6-2.7,3.5,0-.2,0-.5,0-.7,0,.2,0,.5,0,.7,0,5.8,4.6,10.4,10.4,10.4s6-1.4,7.9-3.6l-3.5-2.3Z"></path><path class="st6" d="M87.2,43.5h-11.6v-.3h11.8c.7-1,1.1-2.3,1.1-3.6,0-3.4-2.8-6.2-6.2-6.2h-5.3c1.8,1,3.2,2.4,4.3,4.1h1c1.2,0,2.1.9,2.1,2.1s-.9,2.1-2.1,2.1h-6.6v-1.7c-1.1-1.3-2.5-1.9-4.1-1.9v15.4h.1c1.5,0,2.8-.3,4-.8v-6.8h3.2l4.8,7.6h4.9l-4.8-7.8c1.4-.3,2.6-1.1,3.5-2.2Z"></path><path class="st12" d="M81.7,40.7h-4.3c-.9-2.1-3.1-3.6-5.6-3.6h-.1c-3.4,0-6,2.8-6,6.2s1.9,5.2,4.6,6v4.1c-4.9-.8-8.6-5-8.6-10.1s4.6-10.2,10.2-10.2,8.8,3.2,9.9,7.7Z"></path><path class="st6" d="M101.3,33.5h-10.7v9.8h15.8c.7-1,1.1-2.2,1.1-3.5,0-3.4-2.8-6.2-6.2-6.2ZM101.3,41.8h-6.6v-4.2h6.6c1.2,0,2.1.9,2.1,2.1s-.9,2.1-2.1,2.1ZM90.5,53.6h4.1v-7.7h6.6c2,0,3.8-.9,4.9-2.4h-15.6v10Z"></path><path class="st6" d="M109.1,43.5v10h4.1v-10h-4.1Z"></path><rect class="st4" x="109.1" y="33.5" width="4.1" height="9.8"></rect><path class="st6" d="M147,33.4v13.5l-11-13.5h-4.2v10.1c0,3.4-2.8,6.2-6.3,6.2s-6.2-2.7-6.3-6.1h-4.1c0,5.7,4.7,10.3,10.4,10.3s10.4-4.6,10.4-10.3v-3.5l11,13.5h4.1v-20.1h-4.1ZM125.5,33c-5.7,0-10.3,4.6-10.4,10.3h4.1c0-3.4,2.9-6.1,6.3-6.1s3.3.7,4.4,1.8v-5c-1.4-.7-2.8-1-4.4-1Z"></path><path class="st0" d="M128.8,43.4l-4.1,2.3-1.1.7v-2.1c0-.4.3-.7.7-.7h4.3c0,0-5-.3-5-.3v-2.8s3.5,2,3.5,2l1.8,1Z"></path><path class="st9" d="M61.7,36.8l-3.5,2.3c-.1-.1-.2-.2-.4-.3-1.1-1-2.5-1.5-4.1-1.5s-3,.6-4.1,1.6c-1.2.1-2.4.5-3.4,1.2-1.3.9-1.9,1.6-2.7,3.5,0-.2,0-.5,0-.7h0c.2-3.5,2.2-6.5,5-8.2,1.6-.9,3.4-1.4,5.3-1.4,3.2,0,6,1.4,7.9,3.6Z"></path></g><g><text class="st2" transform="translate(55.6 57)"><tspan x="0" y="0">PRIVATE LIMITED</tspan></text><g><path class="st5" d="M57.5,49.4h4.4v1.2h-5.8v-7.7h5.6v1.2h-4.2v5.3ZM57.4,46.1h3.8v1.2h-3.8v-1.2Z"></path><path class="st5" d="M63.5,50.6v-7.7h3.4c.8,0,1.6.2,2.2.5s1.1.8,1.5,1.3c.4.6.5,1.3.5,2s-.2,1.4-.5,2c-.4.6-.8,1-1.5,1.4-.6.3-1.4.5-2.2.5h-3.4ZM64.9,49.4h1.9c.6,0,1.1-.1,1.5-.3.4-.2.8-.5,1-.9s.3-.9.3-1.4-.1-1-.3-1.4-.6-.7-1-.9-.9-.3-1.5-.3h-1.9v5.3Z"></path><path class="st5" d="M76.2,50.7c-.6,0-1.2,0-1.7-.3-.5-.2-.9-.5-1.3-.8-.4-.4-.7-.8-.9-1.3-.2-.5-.3-1-.3-1.6s.1-1.1.3-1.6c.2-.5.5-.9.9-1.3.4-.4.8-.6,1.3-.8s1.1-.3,1.7-.3,1.2.1,1.8.3c.5.2,1,.5,1.3.9l-.9.9c-.3-.3-.6-.5-1-.7s-.7-.2-1.2-.2-.8,0-1.1.2c-.3.1-.6.3-.9.6-.2.2-.4.5-.6.9-.1.3-.2.7-.2,1.1s0,.8.2,1.1c.1.3.3.6.6.9.3.2.5.4.9.6s.7.2,1.1.2.8,0,1.1-.2.7-.3,1-.6l.8,1.1c-.4.3-.9.6-1.4.7-.5.2-1.1.2-1.6.2ZM77.9,49.6v-2.9h1.4v3.1l-1.4-.2Z"></path><path class="st5" d="M82.5,49.4h4.4v1.2h-5.8v-7.7h5.6v1.2h-4.2v5.3ZM82.4,46.1h3.8v1.2h-3.8v-1.2Z"></path><path class="st3" d="M90.9,50.6v-1l3.1-2.9c.3-.2.4-.5.6-.6s.2-.4.2-.5,0-.3,0-.4c0-.4-.1-.6-.4-.8-.2-.2-.6-.3-1.1-.3s-.7,0-1,.2c-.3.1-.6.3-.8.6l-1-.8c.3-.4.7-.7,1.2-.9.5-.2,1.1-.3,1.7-.3s1,0,1.5.3.7.4,1,.8.3.7.3,1.2,0,.5,0,.7c0,.2-.2.5-.4.8-.2.3-.5.6-.8.9l-2.6,2.5-.3-.5h4.5v1.2h-5.7Z"></path><path class="st5" d="M103.4,50.7c-.6,0-1.1,0-1.6-.3-.5-.2-.9-.4-1.2-.8l.3-.4c.3.3.6.5,1.1.7.5.2.9.3,1.5.3s.9,0,1.3-.2c.3-.1.6-.3.7-.5.2-.2.2-.5.2-.8s0-.6-.3-.8c-.2-.2-.4-.4-.7-.5-.3-.1-.6-.2-.9-.3-.3,0-.7-.2-1-.3-.3,0-.7-.2-.9-.4s-.5-.3-.7-.6-.3-.6-.3-1,0-.7.3-1,.5-.6.9-.8c.4-.2.9-.3,1.6-.3s.8,0,1.3.2c.4.1.8.3,1.1.5l-.2.5c-.3-.2-.7-.4-1-.5-.4-.1-.7-.2-1.1-.2-.5,0-.9,0-1.2.2-.3.1-.6.3-.7.6-.2.2-.2.5-.2.8s0,.6.3.8c.2.2.4.4.7.5.3.1.6.2.9.3s.7.2,1,.3.7.2.9.4c.3.1.5.3.7.6s.3.6.3,1,0,.7-.3,1c-.2.3-.5.6-.9.8-.4.2-.9.3-1.6.3Z"></path><path class="st5" d="M109.9,50.6v-2.8.4c.1,0-3.1-5.3-3.1-5.3h.6l2.9,4.8h-.3l2.9-4.8h.6l-3.2,5.3v-.4c.1,0,.1,2.8.1,2.8h-.6Z"></path><path class="st5" d="M117,50.7c-.6,0-1.1,0-1.6-.3-.5-.2-.9-.4-1.2-.8l.3-.4c.3.3.6.5,1.1.7.5.2.9.3,1.5.3s.9,0,1.3-.2c.3-.1.6-.3.7-.5.2-.2.2-.5.2-.8s0-.6-.3-.8c-.2-.2-.4-.4-.7-.5-.3-.1-.6-.2-.9-.3-.3,0-.7-.2-1-.3-.3,0-.7-.2-.9-.4s-.5-.3-.7-.6-.3-.6-.3-1,0-.7.3-1,.5-.6.9-.8c.4-.2.9-.3,1.6-.3s.8,0,1.3.2c.4.1.8.3,1.1.5l-.2.5c-.3-.2-.7-.4-1-.5-.4-.1-.7-.2-1.1-.2-.5,0-.9,0-1.2.2-.3.1-.6.3-.7.6-.2.2-.2.5-.2.8s0,.6.3.8c.2.2.4.4.7.5.3.1.6.2.9.3s.7.2,1,.3.7.2.9.4c.3.1.5.3.7.6s.3.6.3,1,0,.7-.3,1c-.2.3-.5.6-.9.8-.4.2-.9.3-1.6.3Z"></path><path class="st5" d="M123.1,50.6v-7.2h-2.8v-.5h6.1v.5h-2.8v7.2h-.6Z"></path><path class="st5" d="M128.4,50.1h4.8v.5h-5.3v-7.7h5.2v.5h-4.6v6.7ZM128.4,46.4h4.2v.5h-4.2v-.5Z"></path><path class="st5" d="M135.3,50.6v-7.7h.5l3.6,6.2h-.3l3.6-6.2h.5v7.7s-.5,0-.5,0v-6.9s.1,0,.1,0l-3.4,5.9h-.3l-3.4-5.9h.2v6.9h-.6Z"></path><path class="st5" d="M147.9,50.7c-.6,0-1.1,0-1.6-.3-.5-.2-.9-.4-1.2-.8l.3-.4c.3.3.6.5,1.1.7.5.2.9.3,1.5.3s.9,0,1.3-.2c.3-.1.6-.3.7-.5.2-.2.2-.5.2-.8s0-.6-.3-.8c-.2-.2-.4-.4-.7-.5-.3-.1-.6-.2-.9-.3-.3,0-.7-.2-1-.3-.3,0-.7-.2-.9-.4s-.5-.3-.7-.6-.3-.6-.3-1,0-.7.3-1,.5-.6.9-.8c.4-.2.9-.3,1.6-.3s.8,0,1.3.2c.4.1.8.3,1.1.5l-.2.5c-.3-.2-.7-.4-1-.5-.4-.1-.7-.2-1.1-.2-.5,0-.9,0-1.2.2-.3.1-.6.3-.7.6-.2.2-.2.5-.2.8s0,.6.3.8c.2.2.4.4.7.5.3.1.6.2.9.3s.7.2,1,.3.7.2.9.4c.3.1.5.3.7.6s.3.6.3,1,0,.7-.3,1c-.2.3-.5.6-.9.8-.4.2-.9.3-1.6.3Z"></path></g><path class="st5" d="M51.2,43.2s0,0,0,0h0s0,0,0,0v.3s0,0,0,0l-.2,1.3-.4,3.3-.4,3.3h-3.2l.4-3.3h0l.4-3.3h-6.5l.4-3.3h7.8c.5,0,.9.2,1.2.5.3.3.4.6.5,1,0,0,0,0,0,.1Z"></path><polygon class="st11" points="49.7 54.8 49.3 58.1 39.5 58.1 40 54.8 49.7 54.8"></polygon><polygon class="st5" points="37.8 48.2 37.5 50.6 37.4 51.5 27.8 51.5 28.2 48.2 31.3 48.2 31.3 48.2 37.8 48.2"></polygon><path class="st5" d="M30.5,54.8h6.5l-.4,3.3h-7.8c-.5,0-.9-.2-1.2-.5-.3-.3-.5-.7-.5-1.2s0,0,0,0v-.2s0,0,0,0l.2-1.3.4-3.3h3.1l-.4,3.3Z"></path><polygon class="st5" points="47.3 48.2 46.9 51.5 46.9 51.5 40.4 51.5 40.8 48.2 47.3 48.2"></polygon><path class="st11" d="M38.7,41.6l-.4,3.3h-9.6l.2-1.7v-.3c.1-.3.3-.6.5-.8.3-.3.7-.5,1.2-.5h8.2Z"></path></g></g><metadata></metadata></svg>